0
SECTION
2
HEADER
0
ENDSEC
0
SECTION
2
ENTITIES
0
LINE
8
0
10
20
20
30
11
180
21
30
0
LINE
8
0
10
180
20
30
11
180
21
90
0
LINE
8
0
10
180
20
90
11
20
21
90
0
LINE
8
0
10
20
20
90
11
20
21
30
0
CIRCLE
8
0
10
20
20
60
40
30
0
CIRCLE
8
0
10
180
20
60
40
30
0
LINE
8
TUBES
10
25
20
45
11
175
21
45
0
LINE
8
TUBES
10
25
20
52
11
175
21
52
0
LINE
8
TUBES
10
25
20
60
11
175
21
60
0
LINE
8
TUBES
10
25
20
68
11
175
21
68
0
LINE
8
TUBES
10
25
20
75
11
175
21
75
0
LINE
8
NOZZLES
10
55
20
90
11
55
21
112
0
LINE
8
NOZZLES
10
70
20
90
11
70
21
112
0
LINE
8
NOZZLES
10
55
20
112
11
70
21
112
0
LINE
8
NOZZLES
10
130
20
30
11
130
21
8
0
LINE
8
NOZZLES
10
145
20
30
11
145
21
8
0
LINE
8
NOZZLES
10
130
20
8
11
145
21
8
0
TEXT
8
TEXT
10
35
20
125
40
6
1
SAMPLE HEAT EXCHANGER
0
ENDSEC
0
EOF
