0
SECTION
2
HEADER
0
ENDSEC
0
SECTION
2
ENTITIES
0
LINE
8
0
10
0
20
0
30
0
11
150
21
0
31
0
0
LINE
8
0
10
150
20
0
30
0
11
150
21
100
31
0
0
LINE
8
0
10
150
20
100
30
0
11
0
21
100
31
0
0
LINE
8
0
10
0
20
100
30
0
11
0
21
0
31
0
0
LINE
8
0
10
20
20
20
30
0
11
130
21
20
31
0
0
LINE
8
0
10
130
20
20
30
0
11
130
21
80
31
0
0
LINE
8
0
10
130
20
80
30
0
11
20
21
80
31
0
0
LINE
8
0
10
20
20
80
30
0
11
20
21
20
31
0
0
CIRCLE
8
0
10
20
20
20
30
0
40
10
0
CIRCLE
8
0
10
20
20
80
30
0
40
10
0
CIRCLE
8
0
10
130
20
20
30
0
40
10
0
CIRCLE
8
0
10
130
20
80
30
0
40
10
0
LINE
8
0
10
16
20
20
30
0
11
24
21
20
31
0
0
LINE
8
0
10
20
20
16
30
0
11
20
21
24
31
0
0
LINE
8
0
10
16
20
80
30
0
11
24
21
80
31
0
0
LINE
8
0
10
20
20
76
30
0
11
20
21
84
31
0
0
LINE
8
0
10
126
20
20
30
0
11
134
21
20
31
0
0
LINE
8
0
10
130
20
16
30
0
11
130
21
24
31
0
0
LINE
8
0
10
126
20
80
30
0
11
134
21
80
31
0
0
LINE
8
0
10
130
20
76
30
0
11
130
21
84
31
0
0
ENDSEC
0
EOF
